<?xml version="1.0" encoding="UTF-8" standalone="no"?><!DOCTYPE svg PUBLIC "-//W3C//DTD SVG 1.1//EN" "http://www.w3.org/Graphics/SVG/1.1/DTD/svg11.dtd"><svg width="100%" height="100%" viewBox="0 0 512 512" version="1.1" xmlns="http://www.w3.org/2000/svg" xmlns:xlink="http://www.w3.org/1999/xlink" xml:space="preserve" style="fill-rule:evenodd;clip-rule:evenodd;stroke-linejoin:round;stroke-miterlimit:2;"><path d="M335.44,16c12.788,-0.01 25.064,5.091 34.08,14.16l112.32,112.32c9.069,9.016 14.17,21.292 14.16,34.08l-0,158.88c0.01,12.788 -5.091,25.064 -14.16,34.08l-112.32,112.32c-9.016,9.069 -21.292,14.17 -34.08,14.16l-158.88,-0c-12.788,0.01 -25.064,-5.091 -34.08,-14.16l-112.32,-112.32c-9.069,-9.016 -14.17,-21.292 -14.16,-34.08l0,-158.88c-0.01,-12.788 5.091,-25.064 14.16,-34.08l112.32,-112.32c9.016,-9.069 21.292,-14.17 34.08,-14.16l158.88,0Zm-259.497,162.155c-1.5,1.5 -2.343,3.535 -2.343,5.657c-0,19.996 -0,124.38 -0,144.376c-0,2.122 0.843,4.157 2.343,5.657c14.15,14.15 88.062,88.062 102.212,102.212c1.5,1.5 3.535,2.343 5.657,2.343c19.996,0 124.38,0 144.376,0c2.122,0 4.157,-0.843 5.657,-2.343c14.15,-14.15 88.062,-88.062 102.212,-102.212c1.5,-1.5 2.343,-3.535 2.343,-5.657c0,-19.996 0,-124.38 0,-144.376c0,-2.122 -0.843,-4.157 -2.343,-5.657c-14.15,-14.15 -88.062,-88.062 -102.212,-102.212c-1.5,-1.5 -3.535,-2.343 -5.657,-2.343c-19.996,-0 -124.38,-0 -144.376,-0c-2.122,-0 -4.157,0.843 -5.657,2.343c-14.15,14.15 -88.062,88.062 -102.212,102.212Z" style="fill:#808080;"/><path d="M313.604,339.978c-7,0.022 -13.725,-2.762 -18.662,-7.726l-38.941,-38.928l-38.941,38.947c-4.948,4.948 -11.665,7.73 -18.662,7.73c-14.478,-0 -26.392,-11.914 -26.392,-26.392c0,-6.997 2.783,-13.714 7.73,-18.662l38.941,-38.947l-38.947,-38.941c-4.948,-4.948 -7.73,-11.665 -7.73,-18.662c0,-14.478 11.914,-26.392 26.392,-26.392c6.997,0 13.714,2.783 18.662,7.73l38.947,38.941l38.941,-38.947c4.948,-4.948 11.665,-7.73 18.662,-7.73c14.478,0 26.392,11.914 26.392,26.392c-0,6.997 -2.783,13.714 -7.73,18.662l-38.941,38.947l38.947,38.941c4.946,4.946 7.728,11.661 7.728,18.656c0,14.472 -11.909,26.381 -26.382,26.381c-0.002,0 -0.014,0 -0.014,0Z" style="fill:#7f7f7f;fill-rule:nonzero;"/></svg>