<?xml version="1.0" encoding="UTF-8" standalone="no"?><!DOCTYPE svg PUBLIC "-//W3C//DTD SVG 1.1//EN" "http://www.w3.org/Graphics/SVG/1.1/DTD/svg11.dtd"><svg width="100%" height="100%" viewBox="0 0 512 512" version="1.1" xmlns="http://www.w3.org/2000/svg" xmlns:xlink="http://www.w3.org/1999/xlink" xml:space="preserve" style="fill-rule:evenodd;clip-rule:evenodd;stroke-linejoin:round;stroke-miterlimit:2;"><path d="M256,16c132.46,0 240,107.54 240,240c0,132.46 -107.54,240 -240,240c-132.46,0 -240,-107.54 -240,-240c0,-132.46 107.54,-240 240,-240Zm-0,57.6c-100.669,0 -182.4,81.731 -182.4,182.4c0,100.669 81.731,182.4 182.4,182.4c100.669,0 182.4,-81.731 182.4,-182.4c-0,-100.669 -81.731,-182.4 -182.4,-182.4Z" style="fill:#7f7f7f;"/><path d="M256,140.739c18.48,0 33.6,15.12 33.6,33.6c0,18.48 -15.12,33.6 -33.6,33.6c-18.48,0 -33.6,-15.12 -33.6,-33.6c0,-18.48 15.12,-33.6 33.6,-33.6Z" style="fill:#7f7f7f;"/><path d="M256,219.364c15.464,0 28,12.536 28,28l0,100.511c-0,15.464 -12.536,28 -28,28l-0,-0c-15.464,-0 -28,-12.536 -28,-28l0,-100.511c0,-15.464 12.536,-28 28,-28l0,0Z" style="fill:#7f7f7f;"/></svg>