<?xml version="1.0" encoding="UTF-8" standalone="no"?><!DOCTYPE svg PUBLIC "-//W3C//DTD SVG 1.1//EN" "http://www.w3.org/Graphics/SVG/1.1/DTD/svg11.dtd"><svg width="100%" height="100%" viewBox="0 0 512 512" version="1.1" xmlns="http://www.w3.org/2000/svg" xmlns:xlink="http://www.w3.org/1999/xlink" xml:space="preserve" style="fill-rule:evenodd;clip-rule:evenodd;stroke-linejoin:round;stroke-miterlimit:2;"><path d="M256,16c132.46,-0 240,107.54 240,240c0,132.46 -107.54,240 -240,240c-132.46,0 -240,-107.54 -240,-240c0,-132.46 107.54,-240 240,-240Zm0,57.6c-100.669,0 -182.4,81.731 -182.4,182.4c0,100.669 81.731,182.4 182.4,182.4c100.669,0 182.4,-81.731 182.4,-182.4c0,-100.669 -81.731,-182.4 -182.4,-182.4Z" style="fill:#7f7f7f;"/><path d="M256.001,320.462c-12.011,-0 -21.749,-9.737 -21.749,-21.749l0,-9.225c0,-21.468 13.519,-40.67 33.639,-47.784c15.135,-5.352 24.887,-20.319 23.715,-36.397c-1.284,-17.606 -15.538,-31.752 -33.157,-32.906c-18.636,-1.231 -35.239,12.228 -37.805,30.616c-0.23,1.644 -0.346,3.329 -0.346,5.008c0,12.011 -9.737,21.749 -21.749,21.749c-12.012,-0 -21.749,-9.738 -21.749,-21.749c-0,-3.682 0.257,-7.389 0.763,-11.018c5.698,-40.84 42.476,-70.72 83.728,-68.012c39.162,2.565 70.846,34.012 73.699,73.149c2.593,35.571 -19.036,68.702 -52.598,80.57c-2.776,0.981 -4.641,3.703 -4.641,6.774l-0,9.225c-0,12.012 -9.738,21.749 -21.75,21.749Z" style="fill:#7f7f7f;"/><path d="M256.001,390.135c-14.739,0 -26.687,-11.948 -26.687,-26.687l-0,-0.221c-0,-14.739 11.948,-26.688 26.687,-26.688c14.739,0 26.688,11.949 26.688,26.688l-0,0.221c0.001,14.739 -11.948,26.687 -26.688,26.687Z" style="fill:#7f7f7f;"/></svg>