<?xml version="1.0" encoding="UTF-8" standalone="no"?><!DOCTYPE svg PUBLIC "-//W3C//DTD SVG 1.1//EN" "http://www.w3.org/Graphics/SVG/1.1/DTD/svg11.dtd"><svg width="100%" height="100%" viewBox="0 0 512 512" version="1.1" xmlns="http://www.w3.org/2000/svg" xmlns:xlink="http://www.w3.org/1999/xlink" xml:space="preserve" style="fill-rule:evenodd;clip-rule:evenodd;stroke-linejoin:round;stroke-miterlimit:2;"><path d="M217.561,65.75c7.968,-13.681 22.607,-22.096 38.439,-22.096c15.832,-0 30.471,8.415 38.439,22.096l195.518,335.729c8.012,13.759 8.06,30.751 0.125,44.554c-7.935,13.804 -22.642,22.313 -38.564,22.313l-391.036,0c-15.922,0 -30.629,-8.509 -38.564,-22.313c-7.935,-13.803 -7.887,-30.795 0.125,-44.554l195.518,-335.729Zm-136.351,340.199c-1.08,1.856 -1.087,4.148 -0.017,6.01c1.071,1.861 3.055,3.009 5.202,3.009c52.447,0 286.763,0 339.21,0c2.147,0 4.131,-1.148 5.202,-3.009c1.07,-1.862 1.063,-4.154 -0.017,-6.01c-26.302,-45.163 -143.46,-246.339 -169.605,-291.233c-1.075,-1.845 -3.049,-2.98 -5.185,-2.98c-2.136,-0 -4.11,1.135 -5.185,2.98c-26.145,44.894 -143.303,246.07 -169.605,291.233Z" style="fill:#7f7f7f;"/><path d="M283.679,215.374l-7.778,93.106c-0.813,9.752 -8.939,17.298 -18.807,17.298c-9.868,-0 -17.994,-7.546 -18.807,-17.298l-7.778,-93.106c-1.277,-15.556 10.913,-28.907 26.585,-28.907c14.86,0 26.701,12.074 26.701,26.702c0,0.696 0,1.509 -0.116,2.205Z" style="fill:#7f7f7f;"/><path d="M257.093,385.058c-12.952,0 -23.549,-10.597 -23.549,-23.549c-0,-12.952 10.597,-23.549 23.549,-23.549c12.952,-0 23.549,10.597 23.549,23.549c0,12.952 -10.597,23.549 -23.549,23.549Z" style="fill:#7f7f7f;"/></svg>