<?xml version="1.0" encoding="UTF-8" standalone="no"?><!DOCTYPE svg PUBLIC "-//W3C//DTD SVG 1.1//EN" "http://www.w3.org/Graphics/SVG/1.1/DTD/svg11.dtd"><svg width="100%" height="100%" viewBox="0 0 1024 1024" version="1.1" xmlns="http://www.w3.org/2000/svg" xmlns:xlink="http://www.w3.org/1999/xlink" xml:space="preserve" xmlns:serif="http://www.serif.com/" style="fill-rule:evenodd;clip-rule:evenodd;stroke-linecap:round;stroke-linejoin:round;stroke-miterlimit:1.5;"><path d="M880.069,197.015l-0,628.909c-0,83.304 -78.948,150.937 -176.19,150.937l-352.381,-0c-97.242,-0 -176.189,-67.633 -176.189,-150.937l0,-628.909c0,-83.304 78.947,-150.936 176.189,-150.936l352.381,-0c97.242,-0 176.19,67.632 176.19,150.936Z" style="fill:#262626;stroke:#000;stroke-width:46.3px;"/><circle cx="175.309" cy="271.285" r="120.138" style="fill:#00b4af;stroke:#000;stroke-width:92.6px;stroke-linecap:butt;stroke-miterlimit:2;"/><g><circle cx="175.309" cy="271.285" r="120.138" style="fill:#00b4af;"/><path d="M175.309,151.147c66.306,0 120.138,53.832 120.138,120.138c0,66.306 -53.832,120.138 -120.138,120.138l0,-240.276Z" style="fill:#00ccc5;"/><circle cx="175.309" cy="271.285" r="86.818" style="fill:#fff;"/><path d="M130.805,299.248c-5.104,-8.103 -8.057,-17.691 -8.057,-27.963c-0,-29.009 23.552,-52.56 52.561,-52.56c5.414,-0 10.637,0.819 15.553,2.343c-4.514,4.447 -7.314,10.629 -7.314,17.46c0,13.532 10.987,24.518 24.518,24.518c6.831,-0 13.012,-2.8 17.46,-7.314c1.522,4.914 2.343,10.138 2.343,15.553c0,29.009 -23.551,52.56 -52.56,52.56c-10.272,0 -19.86,-2.953 -27.962,-8.056c1.569,-2.003 2.506,-4.525 2.506,-7.264c-0,-6.504 -5.281,-11.783 -11.785,-11.783c-2.739,-0 -5.26,0.935 -7.263,2.506Z"/></g><circle cx="175.309" cy="754.114" r="46.915" style="fill:#00b4af;stroke:#000;stroke-width:92.6px;stroke-linecap:butt;stroke-miterlimit:2;"/><circle cx="175.309" cy="754.114" r="46.915" style="fill:#00b4af;"/><circle cx="175.309" cy="546.256" r="46.915" style="fill:#00b4af;stroke:#000;stroke-width:92.6px;stroke-linecap:butt;stroke-miterlimit:2;"/><circle cx="175.309" cy="546.256" r="46.915" style="fill:#00b4af;"/><path d="M638.582,546.274c-0,-0.01 -0.008,-0.018 -0.019,-0.018l-221.749,-0c-0.01,-0 -0.018,0.008 -0.018,0.018l-0,0.039c-0,0.011 0.008,0.019 0.018,0.019l221.749,0c0.011,0 0.019,-0.008 0.019,-0.019l-0,-0.039Z" style="fill:#262626;stroke:#d8007f;stroke-width:92.6px;"/><path d="M638.582,312.597c-0,-0.01 -0.008,-0.018 -0.019,-0.018l-221.749,-0c-0.01,-0 -0.018,0.008 -0.018,0.018l-0,0.039c-0,0.011 0.008,0.019 0.018,0.019l221.749,0c0.011,0 0.019,-0.008 0.019,-0.019l-0,-0.039Z" style="fill:#262626;stroke:#ff7100;stroke-width:92.6px;"/><path d="M638.582,754.057c-0,-0.01 -0.008,-0.018 -0.019,-0.018l-221.749,-0c-0.01,-0 -0.018,0.008 -0.018,0.018l-0,0.039c-0,0.01 0.008,0.018 0.018,0.018l221.749,0c0.011,0 0.019,-0.008 0.019,-0.018l-0,-0.039Z" style="fill:#262626;stroke:#a5f300;stroke-width:92.6px;"/></svg>