<?xml version="1.0" encoding="UTF-8" standalone="no"?><!DOCTYPE svg PUBLIC "-//W3C//DTD SVG 1.1//EN" "http://www.w3.org/Graphics/SVG/1.1/DTD/svg11.dtd"><svg width="100%" height="100%" viewBox="0 0 683 683" version="1.1" xmlns="http://www.w3.org/2000/svg" xmlns:xlink="http://www.w3.org/1999/xlink" xml:space="preserve" xmlns:serif="http://www.serif.com/" style="fill-rule:evenodd;clip-rule:evenodd;stroke-linecap:round;stroke-linejoin:round;stroke-miterlimit:10;"><path id="path75" d="M480.365,411.831l105.977,-106.284c57.666,-57.835 57.666,-151.605 -0,-209.44l-0.002,0c-57.666,-57.835 -151.162,-57.835 -208.83,0l-105.975,106.284l54.046,54.206l101.107,-101.402c27.818,-27.899 72.918,-27.899 100.737,0c27.817,27.899 27.817,73.132 -0,101.03l-101.108,101.401l54.048,54.205Z" style="fill:#fff;fill-rule:nonzero;"/><path id="path79" d="M199.153,274.984l-102.311,102.61c-57.668,57.835 -57.668,151.604 -0,209.44c57.666,57.835 151.164,57.835 208.83,-0l102.311,-102.61l-54.046,-54.206l-97.442,97.727c-27.818,27.898 -72.919,27.898 -100.736,0c-27.818,-27.899 -27.818,-73.131 -0,-101.03l97.442,-97.726l-54.048,-54.205Z" style="fill:#fff;fill-rule:nonzero;"/><path id="path83" d="M49.44,226.527l90.225,22.623" style="fill:none;fill-rule:nonzero;stroke:#fff;stroke-width:40px;"/><path id="path87" d="M194.552,194.102l-69.925,-70.129" style="fill:none;fill-rule:nonzero;stroke:#fff;stroke-width:40px;"/><path id="path91" d="M226.883,48.566l22.557,90.489" style="fill:none;fill-rule:nonzero;stroke:#fff;stroke-width:40px;"/><path id="path95" d="M633.743,456.613l-90.225,-22.623" style="fill:none;fill-rule:nonzero;stroke:#fff;stroke-width:40px;"/><path id="path99" d="M488.63,489.038l69.925,70.129" style="fill:none;fill-rule:nonzero;stroke:#fff;stroke-width:40px;"/><path id="path103" d="M456.3,634.574l-22.557,-90.489" style="fill:none;fill-rule:nonzero;stroke:#fff;stroke-width:40px;"/></svg>