<?xml version="1.0" encoding="UTF-8" standalone="no"?><!DOCTYPE svg PUBLIC "-//W3C//DTD SVG 1.1//EN" "http://www.w3.org/Graphics/SVG/1.1/DTD/svg11.dtd"><svg width="100%" height="100%" viewBox="0 0 512 512" version="1.1" xmlns="http://www.w3.org/2000/svg" xmlns:xlink="http://www.w3.org/1999/xlink" xml:space="preserve" xmlns:serif="http://www.serif.com/" style="fill-rule:evenodd;clip-rule:evenodd;stroke-linejoin:round;stroke-miterlimit:2;"><path d="M386.576,386.574c-12.567,12.568 -33.514,12.568 -46.08,0.002l-84.496,-84.498l-84.497,84.498c-12.566,12.566 -33.512,12.566 -46.079,-0c-12.566,-12.568 -12.566,-33.513 0,-46.079l84.497,-84.496l-84.497,-84.498c-12.566,-12.566 -12.566,-33.511 0,-46.079c12.567,-12.565 33.513,-12.565 46.079,-0l84.496,84.498l84.497,-84.498c12.566,-12.565 33.512,-12.565 46.079,-0c12.566,12.568 12.566,33.513 0,46.079l-84.497,84.496l84.498,84.498c12.565,12.566 12.565,33.51 0,46.077Z" style="fill:#fff;"/></svg>