<?xml version="1.0" encoding="UTF-8" standalone="no"?><!DOCTYPE svg PUBLIC "-//W3C//DTD SVG 1.1//EN" "http://www.w3.org/Graphics/SVG/1.1/DTD/svg11.dtd"><svg width="100%" height="100%" viewBox="0 0 512 512" version="1.1" xmlns="http://www.w3.org/2000/svg" xmlns:xlink="http://www.w3.org/1999/xlink" xml:space="preserve" xmlns:serif="http://www.serif.com/" style="fill-rule:evenodd;clip-rule:evenodd;stroke-linejoin:round;stroke-miterlimit:2;"><path d="M202.677,396c-6.857,0 -13.038,-4.13 -15.662,-10.465c-2.624,-6.335 -1.174,-13.626 3.674,-18.474c44.911,-44.911 130.904,-130.904 176.025,-176.025c4.906,-4.906 12.285,-6.374 18.696,-3.719c6.41,2.656 10.59,8.911 10.59,15.85c0,45.295 0,117.022 0,159.048c0,18.659 -15.126,33.785 -33.785,33.785l-159.538,0Z" style="fill:#fff;"/><path d="M303.059,116c6.881,-0 13.084,4.145 15.717,10.502c2.634,6.357 1.178,13.674 -3.687,18.54c-43.748,43.748 -126.088,126.087 -169.914,169.913c-4.888,4.888 -12.239,6.35 -18.625,3.705c-6.386,-2.645 -10.55,-8.877 -10.55,-15.789c-0,-43.783 -0,-112.154 -0,-152.928c-0,-18.746 15.197,-33.943 33.943,-33.943l153.116,-0Z" style="fill:#fff;"/></svg>