<?xml version="1.0" encoding="UTF-8" standalone="no"?><!DOCTYPE svg PUBLIC "-//W3C//DTD SVG 1.1//EN" "http://www.w3.org/Graphics/SVG/1.1/DTD/svg11.dtd"><svg width="100%" height="100%" viewBox="0 0 512 512" version="1.1" xmlns="http://www.w3.org/2000/svg" xmlns:xlink="http://www.w3.org/1999/xlink" xml:space="preserve" xmlns:serif="http://www.serif.com/" style="fill-rule:evenodd;clip-rule:evenodd;stroke-linejoin:round;stroke-miterlimit:2;"><path d="M388.896,415.643l-130.607,-0c-12.751,-0 -23.102,-10.352 -23.102,-23.102c-0,-12.751 10.351,-23.102 23.102,-23.102l78.534,-0l-68.47,-68.47c-9.016,-9.016 -9.016,-23.655 -0,-32.671c9.016,-9.016 23.655,-9.016 32.671,-0l68.36,68.36l0,-78.314c0,-12.751 10.352,-23.102 23.102,-23.102c12.75,-0 23.102,10.351 23.102,23.102l-0,129.922c1.496,7.345 -0.603,15.28 -6.295,20.972c-5.544,5.544 -13.215,7.679 -20.397,6.405Z" style="fill:#fff;"/><path d="M123.104,96.357l130.607,0c12.751,0 23.102,10.352 23.102,23.102c0,12.751 -10.351,23.102 -23.102,23.102l-78.534,0l68.47,68.47c9.016,9.016 9.016,23.655 0,32.671c-9.016,9.016 -23.655,9.016 -32.671,0l-68.36,-68.36l-0,78.314c-0,12.751 -10.352,23.102 -23.102,23.102c-12.75,0 -23.102,-10.351 -23.102,-23.102l0,-129.922c-1.496,-7.345 0.603,-15.28 6.295,-20.972c5.544,-5.544 13.215,-7.679 20.397,-6.405Z" style="fill:#fff;"/></svg>