<?xml version="1.0" encoding="UTF-8" standalone="no"?><!DOCTYPE svg PUBLIC "-//W3C//DTD SVG 1.1//EN" "http://www.w3.org/Graphics/SVG/1.1/DTD/svg11.dtd"><svg width="100%" height="100%" viewBox="0 0 1024 1024" version="1.1" xmlns="http://www.w3.org/2000/svg" xmlns:xlink="http://www.w3.org/1999/xlink" xml:space="preserve" xmlns:serif="http://www.serif.com/" style="fill-rule:evenodd;clip-rule:evenodd;stroke-linecap:round;stroke-linejoin:round;stroke-miterlimit:1.5;"><path d="M816.423,248.289l0,543.318c0,71.967 -68.203,130.395 -152.211,130.395l-304.424,0c-84.008,0 -152.211,-58.428 -152.211,-130.395l-0,-543.318c-0,-71.967 68.203,-130.395 152.211,-130.395l304.424,-0c84.008,-0 152.211,58.428 152.211,130.395Z" style="fill:#262626;stroke:#000;stroke-width:40px;"/><circle cx="207.577" cy="312.451" r="103.788" style="fill:#00b4af;stroke:#000;stroke-width:80px;stroke-linecap:butt;stroke-miterlimit:2;"/><g><circle cx="207.577" cy="312.451" r="103.788" style="fill:#00b4af;"/><path d="M207.577,208.663c57.282,-0 103.788,46.506 103.788,103.788c0,57.282 -46.506,103.788 -103.788,103.788l-0,-207.576Z" style="fill:#00ccc5;"/><circle cx="207.577" cy="312.451" r="75.003" style="fill:#fff;"/><path d="M169.13,336.608c-4.41,-7 -6.961,-15.283 -6.961,-24.157c0,-25.061 20.347,-45.407 45.408,-45.407c4.677,-0 9.189,0.708 13.436,2.024c-3.899,3.842 -6.318,9.183 -6.318,15.084c-0,11.69 9.491,21.181 21.181,21.181c5.901,-0 11.241,-2.419 15.084,-6.318c1.315,4.245 2.024,8.758 2.024,13.436c0,25.061 -20.346,45.407 -45.407,45.407c-8.874,0 -17.157,-2.551 -24.157,-6.96c1.356,-1.73 2.165,-3.909 2.165,-6.275c0,-5.619 -4.562,-10.18 -10.181,-10.18c-2.366,-0 -4.544,0.808 -6.274,2.165Z"/></g><circle cx="207.577" cy="729.57" r="40.53" style="fill:#00b4af;stroke:#000;stroke-width:80px;stroke-linecap:butt;stroke-miterlimit:2;"/><circle cx="207.577" cy="729.57" r="40.53" style="fill:#00b4af;"/><circle cx="207.577" cy="550" r="40.53" style="fill:#00b4af;stroke:#000;stroke-width:80px;stroke-linecap:butt;stroke-miterlimit:2;"/><circle cx="207.577" cy="550" r="40.53" style="fill:#00b4af;"/><path d="M607.801,550.016c0,-0.009 -0.007,-0.016 -0.016,-0.016l-191.57,-0c-0.009,-0 -0.016,0.007 -0.016,0.016l-0,0.033c-0,0.01 0.007,0.017 0.016,0.017l191.57,-0c0.009,-0 0.016,-0.007 0.016,-0.017l0,-0.033Z" style="fill:#262626;stroke:#5d5d5d;stroke-width:80px;"/><path d="M607.801,348.141c0,-0.009 -0.007,-0.016 -0.016,-0.016l-191.57,-0c-0.009,-0 -0.016,0.007 -0.016,0.016l-0,0.033c-0,0.01 0.007,0.017 0.016,0.017l191.57,-0c0.009,-0 0.016,-0.007 0.016,-0.017l0,-0.033Z" style="fill:#262626;stroke:#5d5d5d;stroke-width:80px;"/><path d="M607.801,729.521c0,-0.009 -0.007,-0.016 -0.016,-0.016l-191.57,-0c-0.009,-0 -0.016,0.007 -0.016,0.016l-0,0.033c-0,0.009 0.007,0.016 0.016,0.016l191.57,0c0.009,0 0.016,-0.007 0.016,-0.016l0,-0.033Z" style="fill:#262626;stroke:#5d5d5d;stroke-width:80px;"/></svg>