<?xml version="1.0" encoding="UTF-8" standalone="no"?><!DOCTYPE svg PUBLIC "-//W3C//DTD SVG 1.1//EN" "http://www.w3.org/Graphics/SVG/1.1/DTD/svg11.dtd"><svg width="100%" height="100%" viewBox="0 0 512 512" version="1.1" xmlns="http://www.w3.org/2000/svg" xmlns:xlink="http://www.w3.org/1999/xlink" xml:space="preserve" xmlns:serif="http://www.serif.com/" style="fill-rule:evenodd;clip-rule:evenodd;stroke-linejoin:round;stroke-miterlimit:2;"><g><path d="M473.957,121.611c-1.429,-2.313 -1.364,-5.252 0.116,-7.534l14.402,-22.195c3.972,-6.122 3.123,-14.187 -2.037,-19.347l-46.974,-46.974c-5.16,-5.16 -13.226,-6.009 -19.347,-2.037l-22.195,14.402c-2.281,1.48 -5.22,1.545 -7.534,0.116c-38.791,-23.964 -82.593,-36.605 -126.67,-37.926c-62.912,1.892 -125.26,26.846 -173.278,74.864c-85.592,85.594 -97.905,216.717 -36.937,315.409c1.429,2.313 1.364,5.252 -0.116,7.534l-14.402,22.195c-3.972,6.122 -3.123,14.187 2.037,19.347l46.974,46.974c0.974,0.974 2.051,1.794 3.2,2.457c0.232,-0.134 0.461,-0.273 0.688,-0.42l22.195,-14.402c2.281,-1.48 5.22,-1.545 7.534,-0.116c98.692,60.967 229.815,48.655 315.408,-36.938c85.591,-85.593 97.904,-216.717 36.936,-315.409Z" style="fill:#4d4d4d;fill-rule:nonzero;"/><g><path d="M56.481,439.465c-5.16,-5.16 -6.009,-13.226 -2.037,-19.347l14.402,-22.195c1.48,-2.281 1.545,-5.22 0.116,-7.534c-60.967,-98.692 -48.654,-229.816 36.939,-315.408c46.052,-46.052 105.284,-70.891 165.554,-74.516c-70.567,-4.242 -142.555,20.596 -196.474,74.516c-85.593,85.593 -97.905,216.716 -36.938,315.408c1.429,2.313 1.364,5.252 -0.116,7.534l-14.402,22.195c-3.972,6.122 -3.123,14.187 2.037,19.348l46.974,46.974c5.16,5.16 13.226,6.009 19.347,2.037l8.254,-5.356l-43.656,-43.656Z" style="fill:#262626;fill-rule:nonzero;"/></g><ellipse cx="259.865" cy="256" rx="215" ry="218.741" style="fill:#f2700d;"/><circle cx="83.603" cy="318.96" r="16.007" style="fill:#d8007f;"/><path d="M274.996,474.206c-4.999,0.355 -10.044,0.535 -15.131,0.535c-118.662,-0 -215,-98.015 -215,-218.741c0,-120.726 96.338,-218.741 215,-218.741c5.087,0 10.132,0.18 15.131,0.535c-111.613,7.91 -199.869,102.655 -199.869,218.206c0,115.551 88.256,210.296 199.869,218.206Z" style="fill-opacity:0.2;"/></g><g><path d="M155.951,231.098c6.453,-30.547 27.206,-55.819 54.927,-68.483c8.976,-5.04 18.831,-8.7 29.277,-10.694c-20.365,-12.555 -41.675,-18.583 -59.877,-17.212c-9.733,0.733 -19.287,-2.891 -26.189,-9.792l-118.874,-118.875c-5.457,-5.457 -13.211,-7.217 -20.15,-5.281c-0.633,0.5 -1.244,1.041 -1.828,1.625c-8.056,8.056 -8.056,21.117 0,29.174l118.875,118.875c6.902,6.901 10.525,16.456 9.792,26.189c-1.25,16.597 3.652,35.78 14.047,54.474Z" style="fill:#fff;fill-rule:nonzero;"/><path d="M165.629,180.279c0.733,-9.733 -2.891,-19.287 -9.792,-26.189l-118.875,-118.875c-7.763,-7.763 -8.045,-20.173 -0.847,-28.274l-0.899,-0.899c-8.056,-8.056 -21.117,-8.056 -29.173,0c-8.056,8.056 -8.056,21.117 0,29.173l118.874,118.875c6.902,6.902 10.525,16.456 9.792,26.189c-1.45,19.245 5.372,41.965 19.436,63.369c1.179,-15.088 5.793,-29.212 13.059,-41.59c-1.553,-7.559 -2.094,-14.892 -1.575,-21.779Z" style="fill:#ccf7ff;fill-rule:nonzero;"/></g><g><path d="M290.818,186.626c-3.027,-13.357 -5.495,-42.758 25.435,-58.521c3.454,-1.76 7.674,0.222 8.53,4.003c3.027,13.357 5.496,42.758 -25.435,58.521c-3.454,1.76 -7.674,-0.223 -8.53,-4.003Z" style="fill:#a5f300;fill-rule:nonzero;"/><path d="M126.798,293.958c13.045,-5.126 39.694,-11.06 59.723,14.345c2.903,3.683 1.406,9.127 -2.959,10.842c-13.045,5.126 -39.694,11.06 -59.723,-14.345c-2.903,-3.683 -1.406,-9.127 2.959,-10.842Z" style="fill:#a5f300;fill-rule:nonzero;"/></g><g><circle cx="243.993" cy="393.363" r="29.853" style="fill:#d8007f;"/><circle cx="223.981" cy="261.776" r="21.686" style="fill:#d8007f;"/><circle cx="284.742" cy="86.177" r="16.007" style="fill:#d8007f;"/></g><g><path d="M259.08,153.844c0,-4.269 -3.46,-7.73 -7.73,-7.73c-58.027,0 -105.235,47.209 -105.235,105.236c0,4.269 3.46,7.73 7.73,7.73c4.27,0 7.73,-3.461 7.73,-7.73c0,-49.502 40.273,-89.776 89.775,-89.776c4.27,0 7.73,-3.461 7.73,-7.73Z" style="fill:#ffe43b;fill-rule:nonzero;"/><path d="M405.095,149.391c4.217,-0 7.724,-3.421 7.724,-7.739c-0,-5.469 -12.54,-22.759 -32.81,-22.759c-7.374,-0 -26.905,3.887 -26.905,13.242c-0,4.193 3.385,7.729 7.747,7.729c4.479,-0 8.599,-5.506 19.097,-5.506c16.622,-0.001 16.164,15.033 25.147,15.033Z" style="fill:#ffe43b;fill-rule:nonzero;"/><path d="M168.813,351.842c-3.617,2.313 -4.626,7.107 -2.35,10.667c2.284,3.573 4.383,6.929 5.421,12.44c3.827,20.306 -18.609,21.36 -11.538,32.421c2.766,4.327 7.851,4.165 10.674,2.361c1.581,-1.01 30.251,-21.579 9.471,-54.085c-5.251,-8.216 -11.49,-3.924 -11.678,-3.804Z" style="fill:#ffe43b;fill-rule:nonzero;"/><path d="M344.296,394.977c-35.624,-0 -39.397,33.933 -39.397,39.009c-0,4.259 3.453,7.727 7.733,7.727c4.186,-0 7.627,-3.344 7.725,-7.551c0.045,-2.761 1.801,-23.725 23.94,-23.725c0.617,-0 0.861,0.012 1.085,0.012c9.781,-0 11.173,-15.472 -1.086,-15.472Z" style="fill:#ffe43b;fill-rule:nonzero;"/></g><g><path d="M97.092,194.934c-3.989,-0.83 -8.185,1.701 -9.09,6.061c-0.926,5.046 2.908,9.245 7.585,9.245c4.321,-0 7.73,-3.527 7.73,-7.73c-0,-3.71 -2.683,-6.91 -6.225,-7.576Z" style="fill:#ebf3ff;fill-rule:nonzero;"/><path d="M251.375,200.249c-4.376,0 -7.753,3.529 -7.753,7.732c0,4.241 3.435,7.73 7.73,7.73c4.172,0 7.73,-3.412 7.73,-7.73c0,-4.331 -3.543,-7.732 -7.707,-7.732Z" style="fill:#ebf3ff;fill-rule:nonzero;"/><path d="M261.381,323.798c-4.78,-0.935 -9.246,2.695 -9.246,7.586c-0,4.227 3.44,7.72 7.73,7.72c4.306,0 7.73,-3.484 7.73,-7.72c0,-3.601 -2.464,-6.803 -6.214,-7.586Z" style="fill:#ebf3ff;fill-rule:nonzero;"/><path d="M449.757,193.287c-0,-4.166 -3.335,-7.723 -7.744,-7.723c-4.294,0 -7.716,3.502 -7.716,7.723c-0,4.379 3.594,7.73 7.73,7.73c4.772,0 7.73,-3.97 7.73,-7.73Z" style="fill:#ebf3ff;fill-rule:nonzero;"/><path d="M352.048,103.656c4.346,0 7.73,-3.534 7.73,-7.73c0,-4.169 -3.39,-7.73 -7.731,-7.73c-3.546,0 -6.779,2.42 -7.584,6.215c-1.004,4.89 2.807,9.245 7.585,9.245Z" style="fill:#ebf3ff;fill-rule:nonzero;"/><path d="M202.6,103.656c4.206,0 7.73,-3.422 7.73,-7.73c0,-4.08 -3.28,-7.73 -7.73,-7.73c-3.575,0 -6.78,2.418 -7.585,6.215c-0.861,4.7 2.554,9.245 7.585,9.245Z" style="fill:#ebf3ff;fill-rule:nonzero;"/><path d="M374.299,178.343c4.264,-0 7.73,-3.471 7.73,-7.73c-0,-3.809 -2.78,-6.931 -6.215,-7.575c-4.718,-0.974 -9.245,2.669 -9.245,7.575c-0,4.243 3.449,7.73 7.73,7.73Z" style="fill:#ebf3ff;fill-rule:nonzero;"/><path d="M120.038,353.05c-4.136,-0 -7.69,3.357 -7.69,7.729c-0,4.252 3.449,7.73 7.73,7.73c4.362,-0 7.73,-3.592 7.73,-7.73c-0,-4.149 -3.35,-7.729 -7.77,-7.729Z" style="fill:#ebf3ff;fill-rule:nonzero;"/><path d="M273.044,446.576c-4.271,0 -7.731,3.503 -7.731,7.73c0,4.303 3.525,7.73 7.73,7.73c3.46,0 6.76,-2.354 7.586,-6.215c0.926,-5.049 -2.926,-9.245 -7.585,-9.245Z" style="fill:#ebf3ff;fill-rule:nonzero;"/><circle cx="103.317" cy="256" r="7.73" style="fill:#ebf3ff;"/></g><g><path d="M387.887,197.468c49.261,13.199 78.618,63.612 65.517,112.507c-13.101,48.894 -63.732,77.874 -112.993,64.675c-49.261,-13.2 -78.618,-63.612 -65.517,-112.507c13.101,-48.895 63.732,-77.874 112.993,-64.675Z" style="fill-opacity:0.2;"/><path d="M384.84,208.838c42.939,11.505 68.529,55.448 57.109,98.067c-11.42,42.62 -55.552,67.88 -98.491,56.375c-42.939,-11.506 -68.529,-55.448 -57.109,-98.067c11.42,-42.62 55.552,-67.88 98.491,-56.375Z" style="fill:#0ac;"/><path d="M379.102,230.255c31.03,8.314 49.522,40.069 41.27,70.869c-8.253,30.799 -40.146,49.054 -71.176,40.739c-31.03,-8.314 -49.522,-40.07 -41.27,-70.869c8.253,-30.799 40.146,-49.054 71.176,-40.739Z" style="fill:#ccf7ff;"/><path d="M323.767,216.715c38.438,-22.001 87.738,-8.791 110.026,29.481c22.287,38.272 9.175,87.206 -29.262,109.207c4.329,-32.523 -8.548,-55.948 -40.382,-69.344c-30.129,-13.257 -43.143,-36.575 -40.382,-69.344Z" style="fill:#00d5ff;"/><path d="M403.724,328.57c-4.316,-18.864 -17.308,-33.141 -39.575,-42.511c-21.392,-9.412 -34.156,-23.897 -38.771,-43.234c14.117,-12.457 34.093,-17.83 53.724,-12.57c31.029,8.314 49.522,40.07 41.27,70.869c-2.932,10.941 -8.848,20.3 -16.648,27.446Z" style="fill:#fff;"/><path d="M330.37,295.829c-0.001,-0 -0.003,0.001 -0.005,0.001c-1.774,-5.961 -1.977,-12.459 -0.254,-18.889c6.315,-23.566 46.436,-37.15 46.436,-37.15c-0,-0 0.026,0.03 0.078,0.09c-3.272,3.518 -5.752,7.857 -7.078,12.807c-4.369,16.305 5.42,33.117 21.848,37.519c2.514,0.673 5.039,1.018 7.527,1.059c-0.151,1.325 -0.393,2.633 -0.736,3.915c-1.023,3.819 -2.647,7.318 -4.743,10.428c-0.01,0.021 -0.022,0.042 -0.035,0.061c-8.15,12.031 -23.393,18.173 -38.307,14.176l-0.005,-0.001c-6.418,-1.72 -11.95,-5.095 -16.253,-9.539c0,-0 0.001,-0.001 0.002,-0.002c-3.948,-4.078 -6.862,-9.055 -8.475,-14.475Z"/><path d="M336.187,265.441c13.123,-16.429 40.36,-25.65 40.36,-25.65c-0,-0 0.026,0.03 0.078,0.09c-3.272,3.518 -5.752,7.857 -7.078,12.807c-4.369,16.305 5.42,33.117 21.848,37.519c2.514,0.673 5.039,1.018 7.527,1.059c-0.151,1.325 -0.393,2.633 -0.736,3.915c-1.023,3.819 -2.647,7.318 -4.743,10.428c-0.01,0.021 -0.022,0.042 -0.035,0.061c-0.156,0.231 -0.315,0.458 -0.477,0.685c-6.756,-8.266 -16.316,-15.05 -28.782,-20.296c-12.014,-5.286 -21.306,-12.172 -27.962,-20.618Z" style="fill:#002b33;"/></g></svg>