<?xml version="1.0" encoding="UTF-8" standalone="no"?><!DOCTYPE svg PUBLIC "-//W3C//DTD SVG 1.1//EN" "http://www.w3.org/Graphics/SVG/1.1/DTD/svg11.dtd"><svg width="100%" height="100%" viewBox="0 0 1024 1024" version="1.1" xmlns="http://www.w3.org/2000/svg" xmlns:xlink="http://www.w3.org/1999/xlink" xml:space="preserve" xmlns:serif="http://www.serif.com/" style="fill-rule:evenodd;clip-rule:evenodd;stroke-linecap:round;stroke-linejoin:round;stroke-miterlimit:1.5;"><path d="M880.069,197.015l-0,628.909c-0,83.304 -78.948,150.937 -176.19,150.937l-352.381,0c-97.242,0 -176.189,-67.633 -176.189,-150.937l-0,-628.909c-0,-83.304 78.947,-150.936 176.189,-150.936l352.381,0c97.242,0 176.19,67.632 176.19,150.936Z" style="fill:#262626;stroke:#000;stroke-width:46.3px;"/><circle cx="175.309" cy="271.3" r="120.138" style="fill:none;stroke:#000;stroke-width:92.6px;stroke-linecap:butt;stroke-miterlimit:2;"/><circle cx="175.309" cy="754.114" r="46.915" style="fill:#00b4af;stroke:#000;stroke-width:92.6px;stroke-linecap:butt;stroke-miterlimit:2;"/><circle cx="175.309" cy="754.114" r="46.915" style="fill:#0ac;"/><circle cx="175.309" cy="546.256" r="46.915" style="fill:#00b4af;stroke:#000;stroke-width:92.6px;stroke-linecap:butt;stroke-miterlimit:2;"/><circle cx="175.309" cy="546.256" r="46.915" style="fill:#0ac;"/><path d="M638.582,546.274c0,-0.01 -0.008,-0.018 -0.019,-0.018l-221.749,0c-0.01,0 -0.018,0.008 -0.018,0.018l0,0.039c0,0.011 0.008,0.019 0.018,0.019l221.749,0c0.011,0 0.019,-0.008 0.019,-0.019l0,-0.039Z" style="fill:#262626;stroke:#d8007f;stroke-width:92.6px;"/><path d="M638.582,312.597c0,-0.01 -0.008,-0.018 -0.019,-0.018l-221.749,0c-0.01,0 -0.018,0.008 -0.018,0.018l0,0.039c0,0.011 0.008,0.019 0.018,0.019l221.749,0c0.011,0 0.019,-0.008 0.019,-0.019l0,-0.039Z" style="fill:#262626;stroke:#ff7100;stroke-width:92.6px;"/><path d="M638.582,754.057c0,-0.01 -0.008,-0.018 -0.019,-0.018l-221.749,0c-0.01,0 -0.018,0.008 -0.018,0.018l0,0.039c0,0.01 0.008,0.018 0.018,0.018l221.749,0c0.011,0 0.019,-0.008 0.019,-0.018l0,-0.039Z" style="fill:#262626;stroke:#a5f300;stroke-width:92.6px;"/><circle cx="175.3" cy="271.3" r="120" style="fill:#0ac;"/><circle cx="175.3" cy="271.3" r="86.719" style="fill:#ccf7ff;"/><path d="M90.447,186.447c46.832,-46.831 122.874,-46.831 169.706,0c46.831,46.832 46.831,122.874 0,169.706c-6.311,-48.836 -33.875,-77.798 -84.853,-84.853c-48.471,-7.516 -76.19,-36.268 -84.853,-84.853Z" style="fill:#00d5ff;"/><path d="M248.645,317.562c-13.486,-25.675 -37.688,-41.327 -73.345,-46.262c-34.414,-5.336 -58.368,-21.378 -72.467,-47.622c15.513,-23.545 42.188,-39.097 72.467,-39.097c47.861,0 86.719,38.858 86.719,86.719c0,17.003 -4.904,32.87 -13.374,46.262Z" style="fill:#fff;"/><path d="M130.456,298.588c-0.002,0.001 -0.004,0.003 -0.006,0.004c-4.853,-7.954 -7.65,-17.297 -7.65,-27.289c0,-36.621 52.5,-71.903 52.5,-71.903c0,0 0.05,0.034 0.147,0.1c-3.351,6.372 -5.247,13.626 -5.247,21.319c0,25.338 20.571,45.91 45.909,45.91c3.878,0 7.644,-0.482 11.241,-1.389c0.294,1.98 0.45,3.97 0.45,5.963c0,5.934 -0.987,11.639 -2.804,16.961c-0.007,0.035 -0.016,0.07 -0.027,0.103c-7.089,20.61 -26.657,35.436 -49.661,35.436l-0.008,0c-9.899,0 -19.162,-2.745 -27.068,-7.516c0,-0.001 0.001,-0.002 0.002,-0.004c-7.254,-4.379 -13.366,-10.463 -17.778,-17.695Z"/><path d="M127.109,252.269c12.551,-28.918 48.191,-52.869 48.191,-52.869c0,0 0.05,0.034 0.147,0.1c-3.351,6.372 -5.247,13.626 -5.247,21.319c0,25.338 20.571,45.91 45.909,45.91c3.878,0 7.644,-0.482 11.241,-1.389c0.294,1.98 0.45,3.97 0.45,5.963c0,5.934 -0.987,11.639 -2.804,16.961c-0.007,0.035 -0.016,0.07 -0.027,0.103c-0.136,0.395 -0.277,0.787 -0.422,1.178c-12.911,-9.36 -29.284,-15.482 -49.247,-18.245c-19.327,-2.997 -35.355,-9.37 -48.191,-19.031Z" style="fill:#002b33;"/></svg>