<?xml version="1.0" encoding="UTF-8" standalone="no"?><!DOCTYPE svg PUBLIC "-//W3C//DTD SVG 1.1//EN" "http://www.w3.org/Graphics/SVG/1.1/DTD/svg11.dtd"><svg width="100%" height="100%" viewBox="0 0 512 512" version="1.1" xmlns="http://www.w3.org/2000/svg" xmlns:xlink="http://www.w3.org/1999/xlink" xml:space="preserve" style="fill-rule:evenodd;clip-rule:evenodd;stroke-linejoin:round;stroke-miterlimit:2;"><path d="M91.884,488.477c-6.121,3.971 -14.188,3.123 -19.348,-2.037l-46.974,-46.974c-5.16,-5.161 -6.009,-13.226 -2.037,-19.348l14.402,-22.195c1.48,-2.282 1.545,-5.221 0.116,-7.534c-60.967,-98.692 -48.655,-229.815 36.938,-315.408c51.95,-51.951 120.672,-76.905 188.737,-74.865c2.58,0.078 5.16,0.194 7.737,0.349c41.451,2.491 82.413,15.016 118.933,37.577c2.314,1.429 5.253,1.364 7.534,-0.116l22.195,-14.402c6.121,-3.972 14.187,-3.123 19.347,2.037l46.974,46.974c5.16,5.16 6.009,13.225 2.037,19.347l-14.402,22.195c-1.48,2.282 -1.545,5.221 -0.116,7.534c60.968,98.692 48.655,229.816 -36.936,315.409c-85.593,85.593 -216.716,97.905 -315.408,36.938c-2.314,-1.429 -5.253,-1.364 -7.534,0.116l-13.942,9.047l-8.253,5.355Z" style="fill:#4d4d4d;"/><circle cx="256" cy="256" r="220" style="fill:#f2700d;"/><circle cx="79.738" cy="318.96" r="16.007" style="fill:#d8007f;"/><path d="M271.483,475.462c-5.115,0.357 -10.277,0.538 -15.483,0.538c-121.421,0 -220,-98.579 -220,-220c0,-121.421 98.579,-220 220,-220c5.206,-0 10.368,0.181 15.483,0.538c-114.208,7.956 -204.517,103.246 -204.517,219.462c0,116.216 90.309,211.506 204.517,219.462Z" style="fill-opacity:0.2;"/><g><path d="M155.951,231.098c6.453,-30.547 27.206,-55.819 54.927,-68.483c8.976,-5.04 18.831,-8.7 29.277,-10.694c-20.365,-12.555 -41.675,-18.583 -59.877,-17.212c-9.733,0.733 -19.287,-2.891 -26.189,-9.792l-118.874,-118.875c-5.457,-5.457 -13.211,-7.217 -20.15,-5.281c-0.633,0.5 -1.244,1.041 -1.828,1.625c-8.056,8.056 -8.056,21.117 0,29.174l118.875,118.875c6.902,6.901 10.525,16.456 9.792,26.189c-1.25,16.597 3.652,35.78 14.047,54.474Z" style="fill:#fff;fill-rule:nonzero;"/><path d="M165.629,180.279c0.733,-9.733 -2.891,-19.287 -9.792,-26.189l-118.875,-118.875c-7.763,-7.763 -8.045,-20.173 -0.847,-28.274l-0.899,-0.899c-8.056,-8.056 -21.117,-8.056 -29.173,0c-8.056,8.056 -8.056,21.117 0,29.173l118.874,118.875c6.902,6.902 10.525,16.456 9.792,26.189c-1.45,19.245 5.372,41.965 19.436,63.369c1.179,-15.088 5.793,-29.212 13.059,-41.59c-1.553,-7.559 -2.094,-14.892 -1.575,-21.779Z" style="fill:#ccf7ff;fill-rule:nonzero;"/></g><g><path d="M286.953,186.626c-3.027,-13.357 -5.495,-42.758 25.435,-58.521c3.454,-1.76 7.674,0.222 8.53,4.003c3.027,13.357 5.496,42.758 -25.435,58.521c-3.454,1.76 -7.674,-0.223 -8.53,-4.003Z" style="fill:#a5f300;fill-rule:nonzero;"/><path d="M122.933,293.958c13.045,-5.126 39.694,-11.06 59.723,14.345c2.903,3.683 1.406,9.127 -2.959,10.842c-13.045,5.126 -39.694,11.06 -59.723,-14.345c-2.903,-3.683 -1.406,-9.127 2.959,-10.842Z" style="fill:#a5f300;fill-rule:nonzero;"/></g><g><circle cx="240.128" cy="393.363" r="29.853" style="fill:#d8007f;"/><circle cx="220.116" cy="261.776" r="21.686" style="fill:#d8007f;"/><circle cx="280.877" cy="86.177" r="16.007" style="fill:#d8007f;"/></g><g><path d="M255.215,153.844c-0,-4.269 -3.46,-7.73 -7.73,-7.73c-58.027,0 -105.235,47.209 -105.235,105.236c0,4.269 3.46,7.73 7.73,7.73c4.27,0 7.73,-3.461 7.73,-7.73c0,-49.502 40.273,-89.776 89.775,-89.776c4.27,0 7.73,-3.461 7.73,-7.73Z" style="fill:#ffe43b;fill-rule:nonzero;"/><path d="M401.23,149.391c4.217,0 7.724,-3.421 7.724,-7.739c0,-5.469 -12.54,-22.759 -32.81,-22.759c-7.374,0 -26.905,3.887 -26.905,13.242c0,4.193 3.385,7.729 7.747,7.729c4.479,0 8.599,-5.506 19.097,-5.506c16.622,-0.001 16.164,15.033 25.147,15.033Z" style="fill:#ffe43b;fill-rule:nonzero;"/><path d="M164.948,351.842c-3.617,2.313 -4.626,7.107 -2.35,10.667c2.284,3.573 4.383,6.929 5.421,12.44c3.827,20.306 -18.609,21.36 -11.538,32.421c2.766,4.327 7.851,4.165 10.674,2.361c1.581,-1.01 30.251,-21.579 9.471,-54.085c-5.251,-8.216 -11.49,-3.924 -11.678,-3.804Z" style="fill:#ffe43b;fill-rule:nonzero;"/><path d="M340.431,394.977c-35.624,-0 -39.397,33.933 -39.397,39.009c0,4.259 3.453,7.727 7.733,7.727c4.186,-0 7.627,-3.344 7.725,-7.551c0.045,-2.761 1.801,-23.725 23.94,-23.725c0.617,-0 0.861,0.012 1.085,0.012c9.781,-0 11.173,-15.472 -1.086,-15.472Z" style="fill:#ffe43b;fill-rule:nonzero;"/></g><g><path d="M93.227,194.934c-3.989,-0.83 -8.185,1.701 -9.09,6.061c-0.926,5.046 2.908,9.245 7.585,9.245c4.321,0 7.73,-3.527 7.73,-7.73c-0,-3.71 -2.683,-6.91 -6.225,-7.576Z" style="fill:#ebf3ff;fill-rule:nonzero;"/><path d="M247.51,200.249c-4.376,0 -7.753,3.529 -7.753,7.732c0,4.241 3.435,7.73 7.73,7.73c4.172,0 7.73,-3.412 7.73,-7.73c0,-4.331 -3.543,-7.732 -7.707,-7.732Z" style="fill:#ebf3ff;fill-rule:nonzero;"/><path d="M257.516,323.798c-4.78,-0.935 -9.246,2.695 -9.246,7.586c-0,4.227 3.44,7.72 7.73,7.72c4.306,0 7.73,-3.484 7.73,-7.72c-0,-3.601 -2.464,-6.803 -6.214,-7.586Z" style="fill:#ebf3ff;fill-rule:nonzero;"/><path d="M445.892,193.287c0,-4.166 -3.335,-7.723 -7.744,-7.723c-4.294,0 -7.716,3.502 -7.716,7.723c0,4.379 3.594,7.73 7.73,7.73c4.772,0 7.73,-3.97 7.73,-7.73Z" style="fill:#ebf3ff;fill-rule:nonzero;"/><path d="M348.183,103.656c4.346,0 7.73,-3.534 7.73,-7.73c0,-4.169 -3.39,-7.73 -7.731,-7.73c-3.546,0 -6.779,2.42 -7.584,6.215c-1.004,4.89 2.807,9.245 7.585,9.245Z" style="fill:#ebf3ff;fill-rule:nonzero;"/><path d="M198.735,103.656c4.206,0 7.73,-3.422 7.73,-7.73c-0,-4.08 -3.28,-7.73 -7.73,-7.73c-3.575,0 -6.78,2.418 -7.585,6.215c-0.861,4.7 2.554,9.245 7.585,9.245Z" style="fill:#ebf3ff;fill-rule:nonzero;"/><path d="M370.434,178.343c4.264,-0 7.73,-3.471 7.73,-7.73c-0,-3.809 -2.78,-6.931 -6.215,-7.575c-4.718,-0.974 -9.245,2.669 -9.245,7.575c-0,4.243 3.449,7.73 7.73,7.73Z" style="fill:#ebf3ff;fill-rule:nonzero;"/><path d="M116.173,353.05c-4.136,0 -7.69,3.357 -7.69,7.729c-0,4.252 3.449,7.73 7.73,7.73c4.362,0 7.73,-3.592 7.73,-7.73c-0,-4.149 -3.35,-7.729 -7.77,-7.729Z" style="fill:#ebf3ff;fill-rule:nonzero;"/><path d="M269.179,446.576c-4.271,0 -7.731,3.503 -7.731,7.73c-0,4.303 3.525,7.73 7.73,7.73c3.46,0 6.76,-2.354 7.586,-6.215c0.926,-5.049 -2.926,-9.245 -7.585,-9.245Z" style="fill:#ebf3ff;fill-rule:nonzero;"/><circle cx="99.452" cy="256" r="7.73" style="fill:#ebf3ff;"/></g><g><path d="M384.022,197.468c49.261,13.199 78.618,63.612 65.517,112.507c-13.101,48.894 -63.732,77.874 -112.993,64.675c-49.261,-13.2 -78.618,-63.612 -65.517,-112.507c13.101,-48.895 63.732,-77.874 112.993,-64.675Z" style="fill-opacity:0.2;"/><path d="M380.975,208.838c42.939,11.505 68.529,55.448 57.109,98.067c-11.42,42.62 -55.552,67.88 -98.491,56.375c-42.939,-11.506 -68.529,-55.448 -57.109,-98.067c11.42,-42.62 55.552,-67.88 98.491,-56.375Z" style="fill:#0ac;"/><path d="M375.237,230.255c31.03,8.314 49.522,40.069 41.27,70.869c-8.253,30.799 -40.146,49.054 -71.176,40.739c-31.03,-8.314 -49.522,-40.07 -41.27,-70.869c8.253,-30.799 40.146,-49.054 71.176,-40.739Z" style="fill:#ccf7ff;"/><path d="M319.902,216.715c38.438,-22.001 87.738,-8.791 110.026,29.481c22.287,38.272 9.175,87.206 -29.262,109.207c4.329,-32.523 -8.548,-55.948 -40.382,-69.344c-30.129,-13.257 -43.143,-36.575 -40.382,-69.344Z" style="fill:#00d5ff;"/><path d="M399.859,328.57c-4.316,-18.864 -17.308,-33.141 -39.575,-42.511c-21.392,-9.412 -34.156,-23.897 -38.771,-43.234c14.117,-12.457 34.093,-17.83 53.724,-12.57c31.029,8.314 49.522,40.07 41.27,70.869c-2.932,10.941 -8.848,20.3 -16.648,27.446Z" style="fill:#fff;"/><path d="M326.505,295.829c-0.001,0 -0.003,0.001 -0.005,0.001c-1.774,-5.961 -1.977,-12.459 -0.254,-18.889c6.315,-23.566 46.436,-37.15 46.436,-37.15c0,0 0.026,0.03 0.078,0.09c-3.272,3.518 -5.752,7.857 -7.078,12.807c-4.369,16.305 5.42,33.117 21.848,37.519c2.514,0.673 5.039,1.018 7.527,1.059c-0.151,1.325 -0.393,2.633 -0.736,3.915c-1.023,3.819 -2.647,7.318 -4.743,10.428c-0.01,0.021 -0.022,0.042 -0.035,0.061c-8.15,12.031 -23.393,18.173 -38.307,14.176l-0.005,-0.001c-6.418,-1.72 -11.95,-5.095 -16.253,-9.539c0,0 0.001,-0.001 0.002,-0.002c-3.948,-4.078 -6.862,-9.055 -8.475,-14.475Z"/><path d="M332.322,265.441c13.123,-16.429 40.36,-25.65 40.36,-25.65c0,-0 0.026,0.03 0.078,0.09c-3.272,3.518 -5.752,7.857 -7.078,12.807c-4.369,16.305 5.42,33.117 21.848,37.519c2.514,0.673 5.039,1.018 7.527,1.059c-0.151,1.325 -0.393,2.633 -0.736,3.915c-1.023,3.819 -2.647,7.318 -4.743,10.428c-0.01,0.021 -0.022,0.042 -0.035,0.061c-0.156,0.231 -0.315,0.458 -0.477,0.685c-6.756,-8.266 -16.316,-15.05 -28.782,-20.296c-12.014,-5.286 -21.306,-12.172 -27.962,-20.618Z" style="fill:#002b33;"/></g></svg>