<?xml version="1.0" encoding="UTF-8" standalone="no"?><!DOCTYPE svg PUBLIC "-//W3C//DTD SVG 1.1//EN" "http://www.w3.org/Graphics/SVG/1.1/DTD/svg11.dtd"><svg width="100%" height="100%" viewBox="0 0 512 512" version="1.1" xmlns="http://www.w3.org/2000/svg" xmlns:xlink="http://www.w3.org/1999/xlink" xml:space="preserve" xmlns:serif="http://www.serif.com/" style="fill-rule:evenodd;clip-rule:evenodd;stroke-linejoin:round;stroke-miterlimit:2;"><circle cx="256" cy="256" r="256" style="fill:#e24c4b;"/><path d="M354.658,492.268c-30.37,12.709 -63.7,19.732 -98.659,19.732c-141.29,-0 -255.999,-114.71 -255.999,-256c-0,-29.773 5.092,-58.365 14.455,-84.951c-0.306,5.601 -0.022,11.26 -0.461,16.921c-13.988,180.322 123.333,317.446 306.218,306.217c11.622,-0.713 23.138,-0.652 34.446,-1.919Z" style="fill-opacity:0.25;"/><path d="M386.574,400.264c-12.566,12.566 -33.512,12.566 -46.079,0l-84.496,-84.496l-84.496,84.496c-12.567,12.566 -33.513,12.566 -46.079,0c-12.566,-12.567 -12.566,-33.513 -0,-46.079l84.496,-84.496l-84.496,-84.496c-12.566,-12.567 -12.566,-33.513 -0,-46.079c12.566,-12.567 261.15,215.071 261.15,215.071c12.566,12.566 12.566,33.511 -0,46.079Z" style="fill-opacity:0.25;"/><path d="M386.575,386.834c-12.567,12.568 -33.513,12.568 -46.079,0.002l-84.496,-84.498l-84.497,84.498c-12.566,12.566 -33.512,12.566 -46.079,-0c-12.566,-12.568 -12.566,-33.513 -0,-46.079l84.497,-84.496l-84.497,-84.498c-12.566,-12.566 -12.566,-33.511 -0,-46.079c12.567,-12.565 33.513,-12.565 46.079,0l84.496,84.498l84.497,-84.498c12.566,-12.565 33.512,-12.565 46.079,0c12.566,12.568 12.566,33.513 -0,46.079l-84.497,84.496l84.497,84.498c12.566,12.566 12.566,33.51 -0,46.077Z" style="fill:#fff;"/></svg>